<?xml version="1.0" encoding="utf-8" standalone="no"?>
<!DOCTYPE svg PUBLIC "-//W3C//DTD SVG 1.1//EN"
  "http://www.w3.org/Graphics/SVG/1.1/DTD/svg11.dtd">
<svg xmlns:xlink="http://www.w3.org/1999/xlink" width="508.75pt" height="280.04pt" viewBox="0 0 508.75 280.04" xmlns="http://www.w3.org/2000/svg" version="1.1">
 <metadata>
  <rdf:RDF xmlns:dc="http://purl.org/dc/elements/1.1/" xmlns:cc="http://creativecommons.org/ns#" xmlns:rdf="http://www.w3.org/1999/02/22-rdf-syntax-ns#">
   <cc:Work>
    <dc:type rdf:resource="http://purl.org/dc/dcmitype/StillImage"/>
    <dc:date>2023-12-23T13:10:26.806942</dc:date>
    <dc:format>image/svg+xml</dc:format>
    <dc:creator>
     <cc:Agent>
      <dc:title>Matplotlib v3.7.2, https://matplotlib.org/</dc:title>
     </cc:Agent>
    </dc:creator>
   </cc:Work>
  </rdf:RDF>
 </metadata>
 <defs>
  <style type="text/css">*{stroke-linejoin: round; stroke-linecap: butt}</style>
 </defs>
 <g id="figure_1">
  <g id="patch_1">
   <path d="M 0 280.04 
L 508.75 280.04 
L 508.75 0 
L 0 0 
z
" style="fill: #ffffff"/>
  </g>
  <g id="axes_1">
   <g id="patch_2">
    <path d="M 55.15 243.549375 
L 501.55 243.549375 
L 501.55 21.789375 
L 55.15 21.789375 
z
" style="fill: #eaeaf2"/>
   </g>
   <g id="matplotlib.axis_1">
    <g id="xtick_1">
     <g id="line2d_1">
      <path d="M 79.758124 243.549375 
L 79.758124 21.789375 
" clip-path="url(#pe4bbf222b9)" style="fill: none; stroke: #ffffff; stroke-width: 0.8; stroke-linecap: round"/>
     </g>
     <g id="text_1">
      <!-- 00 -->
      <g style="fill: #262626" transform="translate(74.197186 257.707188) scale(0.1 -0.1)">
       <defs>
        <path id="ArialMT-30" d="M 266 2259 
Q 266 3072 433 3567 
Q 600 4063 929 4331 
Q 1259 4600 1759 4600 
Q 2128 4600 2406 4451 
Q 2684 4303 2865 4023 
Q 3047 3744 3150 3342 
Q 3253 2941 3253 2259 
Q 3253 1453 3087 958 
Q 2922 463 2592 192 
Q 2263 -78 1759 -78 
Q 1097 -78 719 397 
Q 266 969 266 2259 
z
M 844 2259 
Q 844 1131 1108 757 
Q 1372 384 1759 384 
Q 2147 384 2411 759 
Q 2675 1134 2675 2259 
Q 2675 3391 2411 3762 
Q 2147 4134 1753 4134 
Q 1366 4134 1134 3806 
Q 844 3388 844 2259 
z
" transform="scale(0.015625)"/>
       </defs>
       <use xlink:href="#ArialMT-30"/>
       <use xlink:href="#ArialMT-30" x="55.615234"/>
      </g>
     </g>
    </g>
    <g id="xtick_2">
     <g id="line2d_2">
      <path d="M 97.026983 243.549375 
L 97.026983 21.789375 
" clip-path="url(#pe4bbf222b9)" style="fill: none; stroke: #ffffff; stroke-width: 0.8; stroke-linecap: round"/>
     </g>
     <g id="text_2">
      <!-- 01 -->
      <g style="fill: #262626" transform="translate(91.466045 257.707188) scale(0.1 -0.1)">
       <defs>
        <path id="ArialMT-31" d="M 2384 0 
L 1822 0 
L 1822 3584 
Q 1619 3391 1289 3197 
Q 959 3003 697 2906 
L 697 3450 
Q 1169 3672 1522 3987 
Q 1875 4303 2022 4600 
L 2384 4600 
L 2384 0 
z
" transform="scale(0.015625)"/>
       </defs>
       <use xlink:href="#ArialMT-30"/>
       <use xlink:href="#ArialMT-31" x="55.615234"/>
      </g>
     </g>
    </g>
    <g id="xtick_3">
     <g id="line2d_3">
      <path d="M 114.295841 243.549375 
L 114.295841 21.789375 
" clip-path="url(#pe4bbf222b9)" style="fill: none; stroke: #ffffff; stroke-width: 0.8; stroke-linecap: round"/>
     </g>
     <g id="text_3">
      <!-- 02 -->
      <g style="fill: #262626" transform="translate(108.734904 257.707188) scale(0.1 -0.1)">
       <defs>
        <path id="ArialMT-32" d="M 3222 541 
L 3222 0 
L 194 0 
Q 188 203 259 391 
Q 375 700 629 1000 
Q 884 1300 1366 1694 
Q 2113 2306 2375 2664 
Q 2638 3022 2638 3341 
Q 2638 3675 2398 3904 
Q 2159 4134 1775 4134 
Q 1369 4134 1125 3890 
Q 881 3647 878 3216 
L 300 3275 
Q 359 3922 746 4261 
Q 1134 4600 1788 4600 
Q 2447 4600 2831 4234 
Q 3216 3869 3216 3328 
Q 3216 3053 3103 2787 
Q 2991 2522 2730 2228 
Q 2469 1934 1863 1422 
Q 1356 997 1212 845 
Q 1069 694 975 541 
L 3222 541 
z
" transform="scale(0.015625)"/>
       </defs>
       <use xlink:href="#ArialMT-30"/>
       <use xlink:href="#ArialMT-32" x="55.615234"/>
      </g>
     </g>
    </g>
    <g id="xtick_4">
     <g id="line2d_4">
      <path d="M 131.5647 243.549375 
L 131.5647 21.789375 
" clip-path="url(#pe4bbf222b9)" style="fill: none; stroke: #ffffff; stroke-width: 0.8; stroke-linecap: round"/>
     </g>
     <g id="text_4">
      <!-- 03 -->
      <g style="fill: #262626" transform="translate(126.003763 257.707188) scale(0.1 -0.1)">
       <defs>
        <path id="ArialMT-33" d="M 269 1209 
L 831 1284 
Q 928 806 1161 595 
Q 1394 384 1728 384 
Q 2125 384 2398 659 
Q 2672 934 2672 1341 
Q 2672 1728 2419 1979 
Q 2166 2231 1775 2231 
Q 1616 2231 1378 2169 
L 1441 2663 
Q 1497 2656 1531 2656 
Q 1891 2656 2178 2843 
Q 2466 3031 2466 3422 
Q 2466 3731 2256 3934 
Q 2047 4138 1716 4138 
Q 1388 4138 1169 3931 
Q 950 3725 888 3313 
L 325 3413 
Q 428 3978 793 4289 
Q 1159 4600 1703 4600 
Q 2078 4600 2393 4439 
Q 2709 4278 2876 4000 
Q 3044 3722 3044 3409 
Q 3044 3113 2884 2869 
Q 2725 2625 2413 2481 
Q 2819 2388 3044 2092 
Q 3269 1797 3269 1353 
Q 3269 753 2831 336 
Q 2394 -81 1725 -81 
Q 1122 -81 723 278 
Q 325 638 269 1209 
z
" transform="scale(0.015625)"/>
       </defs>
       <use xlink:href="#ArialMT-30"/>
       <use xlink:href="#ArialMT-33" x="55.615234"/>
      </g>
     </g>
    </g>
    <g id="xtick_5">
     <g id="line2d_5">
      <path d="M 148.833559 243.549375 
L 148.833559 21.789375 
" clip-path="url(#pe4bbf222b9)" style="fill: none; stroke: #ffffff; stroke-width: 0.8; stroke-linecap: round"/>
     </g>
     <g id="text_5">
      <!-- 04 -->
      <g style="fill: #262626" transform="translate(143.272621 257.707188) scale(0.1 -0.1)">
       <defs>
        <path id="ArialMT-34" d="M 2069 0 
L 2069 1097 
L 81 1097 
L 81 1613 
L 2172 4581 
L 2631 4581 
L 2631 1613 
L 3250 1613 
L 3250 1097 
L 2631 1097 
L 2631 0 
L 2069 0 
z
M 2069 1613 
L 2069 3678 
L 634 1613 
L 2069 1613 
z
" transform="scale(0.015625)"/>
       </defs>
       <use xlink:href="#ArialMT-30"/>
       <use xlink:href="#ArialMT-34" x="55.615234"/>
      </g>
     </g>
    </g>
    <g id="xtick_6">
     <g id="line2d_6">
      <path d="M 166.102418 243.549375 
L 166.102418 21.789375 
" clip-path="url(#pe4bbf222b9)" style="fill: none; stroke: #ffffff; stroke-width: 0.8; stroke-linecap: round"/>
     </g>
     <g id="text_6">
      <!-- 05 -->
      <g style="fill: #262626" transform="translate(160.54148 257.707188) scale(0.1 -0.1)">
       <defs>
        <path id="ArialMT-35" d="M 266 1200 
L 856 1250 
Q 922 819 1161 601 
Q 1400 384 1738 384 
Q 2144 384 2425 690 
Q 2706 997 2706 1503 
Q 2706 1984 2436 2262 
Q 2166 2541 1728 2541 
Q 1456 2541 1237 2417 
Q 1019 2294 894 2097 
L 366 2166 
L 809 4519 
L 3088 4519 
L 3088 3981 
L 1259 3981 
L 1013 2750 
Q 1425 3038 1878 3038 
Q 2478 3038 2890 2622 
Q 3303 2206 3303 1553 
Q 3303 931 2941 478 
Q 2500 -78 1738 -78 
Q 1113 -78 717 272 
Q 322 622 266 1200 
z
" transform="scale(0.015625)"/>
       </defs>
       <use xlink:href="#ArialMT-30"/>
       <use xlink:href="#ArialMT-35" x="55.615234"/>
      </g>
     </g>
    </g>
    <g id="xtick_7">
     <g id="line2d_7">
      <path d="M 183.371277 243.549375 
L 183.371277 21.789375 
" clip-path="url(#pe4bbf222b9)" style="fill: none; stroke: #ffffff; stroke-width: 0.8; stroke-linecap: round"/>
     </g>
     <g id="text_7">
      <!-- 06 -->
      <g style="fill: #262626" transform="translate(177.810339 257.707188) scale(0.1 -0.1)">
       <defs>
        <path id="ArialMT-36" d="M 3184 3459 
L 2625 3416 
Q 2550 3747 2413 3897 
Q 2184 4138 1850 4138 
Q 1581 4138 1378 3988 
Q 1113 3794 959 3422 
Q 806 3050 800 2363 
Q 1003 2672 1297 2822 
Q 1591 2972 1913 2972 
Q 2475 2972 2870 2558 
Q 3266 2144 3266 1488 
Q 3266 1056 3080 686 
Q 2894 316 2569 119 
Q 2244 -78 1831 -78 
Q 1128 -78 684 439 
Q 241 956 241 2144 
Q 241 3472 731 4075 
Q 1159 4600 1884 4600 
Q 2425 4600 2770 4297 
Q 3116 3994 3184 3459 
z
M 888 1484 
Q 888 1194 1011 928 
Q 1134 663 1356 523 
Q 1578 384 1822 384 
Q 2178 384 2434 671 
Q 2691 959 2691 1453 
Q 2691 1928 2437 2201 
Q 2184 2475 1800 2475 
Q 1419 2475 1153 2201 
Q 888 1928 888 1484 
z
" transform="scale(0.015625)"/>
       </defs>
       <use xlink:href="#ArialMT-30"/>
       <use xlink:href="#ArialMT-36" x="55.615234"/>
      </g>
     </g>
    </g>
    <g id="xtick_8">
     <g id="line2d_8">
      <path d="M 200.640135 243.549375 
L 200.640135 21.789375 
" clip-path="url(#pe4bbf222b9)" style="fill: none; stroke: #ffffff; stroke-width: 0.8; stroke-linecap: round"/>
     </g>
     <g id="text_8">
      <!-- 07 -->
      <g style="fill: #262626" transform="translate(195.079198 257.707188) scale(0.1 -0.1)">
       <defs>
        <path id="ArialMT-37" d="M 303 3981 
L 303 4522 
L 3269 4522 
L 3269 4084 
Q 2831 3619 2401 2847 
Q 1972 2075 1738 1259 
Q 1569 684 1522 0 
L 944 0 
Q 953 541 1156 1306 
Q 1359 2072 1739 2783 
Q 2119 3494 2547 3981 
L 303 3981 
z
" transform="scale(0.015625)"/>
       </defs>
       <use xlink:href="#ArialMT-30"/>
       <use xlink:href="#ArialMT-37" x="55.615234"/>
      </g>
     </g>
    </g>
    <g id="xtick_9">
     <g id="line2d_9">
      <path d="M 217.908994 243.549375 
L 217.908994 21.789375 
" clip-path="url(#pe4bbf222b9)" style="fill: none; stroke: #ffffff; stroke-width: 0.8; stroke-linecap: round"/>
     </g>
     <g id="text_9">
      <!-- 08 -->
      <g style="fill: #262626" transform="translate(212.348057 257.707188) scale(0.1 -0.1)">
       <defs>
        <path id="ArialMT-38" d="M 1131 2484 
Q 781 2613 612 2850 
Q 444 3088 444 3419 
Q 444 3919 803 4259 
Q 1163 4600 1759 4600 
Q 2359 4600 2725 4251 
Q 3091 3903 3091 3403 
Q 3091 3084 2923 2848 
Q 2756 2613 2416 2484 
Q 2838 2347 3058 2040 
Q 3278 1734 3278 1309 
Q 3278 722 2862 322 
Q 2447 -78 1769 -78 
Q 1091 -78 675 323 
Q 259 725 259 1325 
Q 259 1772 486 2073 
Q 713 2375 1131 2484 
z
M 1019 3438 
Q 1019 3113 1228 2906 
Q 1438 2700 1772 2700 
Q 2097 2700 2305 2904 
Q 2513 3109 2513 3406 
Q 2513 3716 2298 3927 
Q 2084 4138 1766 4138 
Q 1444 4138 1231 3931 
Q 1019 3725 1019 3438 
z
M 838 1322 
Q 838 1081 952 856 
Q 1066 631 1291 507 
Q 1516 384 1775 384 
Q 2178 384 2440 643 
Q 2703 903 2703 1303 
Q 2703 1709 2433 1975 
Q 2163 2241 1756 2241 
Q 1359 2241 1098 1978 
Q 838 1716 838 1322 
z
" transform="scale(0.015625)"/>
       </defs>
       <use xlink:href="#ArialMT-30"/>
       <use xlink:href="#ArialMT-38" x="55.615234"/>
      </g>
     </g>
    </g>
    <g id="xtick_10">
     <g id="line2d_10">
      <path d="M 235.177853 243.549375 
L 235.177853 21.789375 
" clip-path="url(#pe4bbf222b9)" style="fill: none; stroke: #ffffff; stroke-width: 0.8; stroke-linecap: round"/>
     </g>
     <g id="text_10">
      <!-- 09 -->
      <g style="fill: #262626" transform="translate(229.616915 257.707188) scale(0.1 -0.1)">
       <defs>
        <path id="ArialMT-39" d="M 350 1059 
L 891 1109 
Q 959 728 1153 556 
Q 1347 384 1650 384 
Q 1909 384 2104 503 
Q 2300 622 2425 820 
Q 2550 1019 2634 1356 
Q 2719 1694 2719 2044 
Q 2719 2081 2716 2156 
Q 2547 1888 2255 1720 
Q 1963 1553 1622 1553 
Q 1053 1553 659 1965 
Q 266 2378 266 3053 
Q 266 3750 677 4175 
Q 1088 4600 1706 4600 
Q 2153 4600 2523 4359 
Q 2894 4119 3086 3673 
Q 3278 3228 3278 2384 
Q 3278 1506 3087 986 
Q 2897 466 2520 194 
Q 2144 -78 1638 -78 
Q 1100 -78 759 220 
Q 419 519 350 1059 
z
M 2653 3081 
Q 2653 3566 2395 3850 
Q 2138 4134 1775 4134 
Q 1400 4134 1122 3828 
Q 844 3522 844 3034 
Q 844 2597 1108 2323 
Q 1372 2050 1759 2050 
Q 2150 2050 2401 2323 
Q 2653 2597 2653 3081 
z
" transform="scale(0.015625)"/>
       </defs>
       <use xlink:href="#ArialMT-30"/>
       <use xlink:href="#ArialMT-39" x="55.615234"/>
      </g>
     </g>
    </g>
    <g id="xtick_11">
     <g id="line2d_11">
      <path d="M 252.446712 243.549375 
L 252.446712 21.789375 
" clip-path="url(#pe4bbf222b9)" style="fill: none; stroke: #ffffff; stroke-width: 0.8; stroke-linecap: round"/>
     </g>
     <g id="text_11">
      <!-- 10 -->
      <g style="fill: #262626" transform="translate(246.885774 257.707188) scale(0.1 -0.1)">
       <use xlink:href="#ArialMT-31"/>
       <use xlink:href="#ArialMT-30" x="55.615234"/>
      </g>
     </g>
    </g>
    <g id="xtick_12">
     <g id="line2d_12">
      <path d="M 269.715571 243.549375 
L 269.715571 21.789375 
" clip-path="url(#pe4bbf222b9)" style="fill: none; stroke: #ffffff; stroke-width: 0.8; stroke-linecap: round"/>
     </g>
     <g id="text_12">
      <!-- 11 -->
      <g style="fill: #262626" transform="translate(264.523383 257.707188) scale(0.1 -0.1)">
       <use xlink:href="#ArialMT-31"/>
       <use xlink:href="#ArialMT-31" x="48.240234"/>
      </g>
     </g>
    </g>
    <g id="xtick_13">
     <g id="line2d_13">
      <path d="M 286.984429 243.549375 
L 286.984429 21.789375 
" clip-path="url(#pe4bbf222b9)" style="fill: none; stroke: #ffffff; stroke-width: 0.8; stroke-linecap: round"/>
     </g>
     <g id="text_13">
      <!-- 12 -->
      <g style="fill: #262626" transform="translate(281.423492 257.707188) scale(0.1 -0.1)">
       <use xlink:href="#ArialMT-31"/>
       <use xlink:href="#ArialMT-32" x="55.615234"/>
      </g>
     </g>
    </g>
    <g id="xtick_14">
     <g id="line2d_14">
      <path d="M 304.253288 243.549375 
L 304.253288 21.789375 
" clip-path="url(#pe4bbf222b9)" style="fill: none; stroke: #ffffff; stroke-width: 0.8; stroke-linecap: round"/>
     </g>
     <g id="text_14">
      <!-- 13 -->
      <g style="fill: #262626" transform="translate(298.692351 257.707188) scale(0.1 -0.1)">
       <use xlink:href="#ArialMT-31"/>
       <use xlink:href="#ArialMT-33" x="55.615234"/>
      </g>
     </g>
    </g>
    <g id="xtick_15">
     <g id="line2d_15">
      <path d="M 321.522147 243.549375 
L 321.522147 21.789375 
" clip-path="url(#pe4bbf222b9)" style="fill: none; stroke: #ffffff; stroke-width: 0.8; stroke-linecap: round"/>
     </g>
     <g id="text_15">
      <!-- 14 -->
      <g style="fill: #262626" transform="translate(315.96121 257.707188) scale(0.1 -0.1)">
       <use xlink:href="#ArialMT-31"/>
       <use xlink:href="#ArialMT-34" x="55.615234"/>
      </g>
     </g>
    </g>
    <g id="xtick_16">
     <g id="line2d_16">
      <path d="M 338.791006 243.549375 
L 338.791006 21.789375 
" clip-path="url(#pe4bbf222b9)" style="fill: none; stroke: #ffffff; stroke-width: 0.8; stroke-linecap: round"/>
     </g>
     <g id="text_16">
      <!-- 15 -->
      <g style="fill: #262626" transform="translate(333.230068 257.707188) scale(0.1 -0.1)">
       <use xlink:href="#ArialMT-31"/>
       <use xlink:href="#ArialMT-35" x="55.615234"/>
      </g>
     </g>
    </g>
    <g id="xtick_17">
     <g id="line2d_17">
      <path d="M 356.059865 243.549375 
L 356.059865 21.789375 
" clip-path="url(#pe4bbf222b9)" style="fill: none; stroke: #ffffff; stroke-width: 0.8; stroke-linecap: round"/>
     </g>
     <g id="text_17">
      <!-- 16 -->
      <g style="fill: #262626" transform="translate(350.498927 257.707188) scale(0.1 -0.1)">
       <use xlink:href="#ArialMT-31"/>
       <use xlink:href="#ArialMT-36" x="55.615234"/>
      </g>
     </g>
    </g>
    <g id="xtick_18">
     <g id="line2d_18">
      <path d="M 373.328723 243.549375 
L 373.328723 21.789375 
" clip-path="url(#pe4bbf222b9)" style="fill: none; stroke: #ffffff; stroke-width: 0.8; stroke-linecap: round"/>
     </g>
     <g id="text_18">
      <!-- 17 -->
      <g style="fill: #262626" transform="translate(367.767786 257.707188) scale(0.1 -0.1)">
       <use xlink:href="#ArialMT-31"/>
       <use xlink:href="#ArialMT-37" x="55.615234"/>
      </g>
     </g>
    </g>
    <g id="xtick_19">
     <g id="line2d_19">
      <path d="M 390.597582 243.549375 
L 390.597582 21.789375 
" clip-path="url(#pe4bbf222b9)" style="fill: none; stroke: #ffffff; stroke-width: 0.8; stroke-linecap: round"/>
     </g>
     <g id="text_19">
      <!-- 18 -->
      <g style="fill: #262626" transform="translate(385.036645 257.707188) scale(0.1 -0.1)">
       <use xlink:href="#ArialMT-31"/>
       <use xlink:href="#ArialMT-38" x="55.615234"/>
      </g>
     </g>
    </g>
    <g id="xtick_20">
     <g id="line2d_20">
      <path d="M 407.866441 243.549375 
L 407.866441 21.789375 
" clip-path="url(#pe4bbf222b9)" style="fill: none; stroke: #ffffff; stroke-width: 0.8; stroke-linecap: round"/>
     </g>
     <g id="text_20">
      <!-- 19 -->
      <g style="fill: #262626" transform="translate(402.305504 257.707188) scale(0.1 -0.1)">
       <use xlink:href="#ArialMT-31"/>
       <use xlink:href="#ArialMT-39" x="55.615234"/>
      </g>
     </g>
    </g>
    <g id="xtick_21">
     <g id="line2d_21">
      <path d="M 425.1353 243.549375 
L 425.1353 21.789375 
" clip-path="url(#pe4bbf222b9)" style="fill: none; stroke: #ffffff; stroke-width: 0.8; stroke-linecap: round"/>
     </g>
     <g id="text_21">
      <!-- 20 -->
      <g style="fill: #262626" transform="translate(419.574362 257.707188) scale(0.1 -0.1)">
       <use xlink:href="#ArialMT-32"/>
       <use xlink:href="#ArialMT-30" x="55.615234"/>
      </g>
     </g>
    </g>
    <g id="xtick_22">
     <g id="line2d_22">
      <path d="M 442.404159 243.549375 
L 442.404159 21.789375 
" clip-path="url(#pe4bbf222b9)" style="fill: none; stroke: #ffffff; stroke-width: 0.8; stroke-linecap: round"/>
     </g>
     <g id="text_22">
      <!-- 21 -->
      <g style="fill: #262626" transform="translate(436.843221 257.707188) scale(0.1 -0.1)">
       <use xlink:href="#ArialMT-32"/>
       <use xlink:href="#ArialMT-31" x="55.615234"/>
      </g>
     </g>
    </g>
    <g id="xtick_23">
     <g id="line2d_23">
      <path d="M 459.673017 243.549375 
L 459.673017 21.789375 
" clip-path="url(#pe4bbf222b9)" style="fill: none; stroke: #ffffff; stroke-width: 0.8; stroke-linecap: round"/>
     </g>
     <g id="text_23">
      <!-- 22 -->
      <g style="fill: #262626" transform="translate(454.11208 257.707188) scale(0.1 -0.1)">
       <use xlink:href="#ArialMT-32"/>
       <use xlink:href="#ArialMT-32" x="55.615234"/>
      </g>
     </g>
    </g>
    <g id="xtick_24">
     <g id="line2d_24">
      <path d="M 476.941876 243.549375 
L 476.941876 21.789375 
" clip-path="url(#pe4bbf222b9)" style="fill: none; stroke: #ffffff; stroke-width: 0.8; stroke-linecap: round"/>
     </g>
     <g id="text_24">
      <!-- 23 -->
      <g style="fill: #262626" transform="translate(471.380939 257.707188) scale(0.1 -0.1)">
       <use xlink:href="#ArialMT-32"/>
       <use xlink:href="#ArialMT-33" x="55.615234"/>
      </g>
     </g>
    </g>
    <g id="text_25">
     <!-- Hour -->
     <g style="fill: #262626" transform="translate(267.513281 270.8525) scale(0.1 -0.1)">
      <defs>
       <path id="ArialMT-48" d="M 513 0 
L 513 4581 
L 1119 4581 
L 1119 2700 
L 3500 2700 
L 3500 4581 
L 4106 4581 
L 4106 0 
L 3500 0 
L 3500 2159 
L 1119 2159 
L 1119 0 
L 513 0 
z
" transform="scale(0.015625)"/>
       <path id="ArialMT-6f" d="M 213 1659 
Q 213 2581 725 3025 
Q 1153 3394 1769 3394 
Q 2453 3394 2887 2945 
Q 3322 2497 3322 1706 
Q 3322 1066 3130 698 
Q 2938 331 2570 128 
Q 2203 -75 1769 -75 
Q 1072 -75 642 372 
Q 213 819 213 1659 
z
M 791 1659 
Q 791 1022 1069 705 
Q 1347 388 1769 388 
Q 2188 388 2466 706 
Q 2744 1025 2744 1678 
Q 2744 2294 2464 2611 
Q 2184 2928 1769 2928 
Q 1347 2928 1069 2612 
Q 791 2297 791 1659 
z
" transform="scale(0.015625)"/>
       <path id="ArialMT-75" d="M 2597 0 
L 2597 488 
Q 2209 -75 1544 -75 
Q 1250 -75 995 37 
Q 741 150 617 320 
Q 494 491 444 738 
Q 409 903 409 1263 
L 409 3319 
L 972 3319 
L 972 1478 
Q 972 1038 1006 884 
Q 1059 663 1231 536 
Q 1403 409 1656 409 
Q 1909 409 2131 539 
Q 2353 669 2445 892 
Q 2538 1116 2538 1541 
L 2538 3319 
L 3100 3319 
L 3100 0 
L 2597 0 
z
" transform="scale(0.015625)"/>
       <path id="ArialMT-72" d="M 416 0 
L 416 3319 
L 922 3319 
L 922 2816 
Q 1116 3169 1280 3281 
Q 1444 3394 1641 3394 
Q 1925 3394 2219 3213 
L 2025 2691 
Q 1819 2813 1613 2813 
Q 1428 2813 1281 2702 
Q 1134 2591 1072 2394 
Q 978 2094 978 1738 
L 978 0 
L 416 0 
z
" transform="scale(0.015625)"/>
      </defs>
      <use xlink:href="#ArialMT-48"/>
      <use xlink:href="#ArialMT-6f" x="72.216797"/>
      <use xlink:href="#ArialMT-75" x="127.832031"/>
      <use xlink:href="#ArialMT-72" x="183.447266"/>
     </g>
    </g>
   </g>
   <g id="matplotlib.axis_2">
    <g id="ytick_1">
     <g id="line2d_25">
      <path d="M 55.15 243.549375 
L 501.55 243.549375 
" clip-path="url(#pe4bbf222b9)" style="fill: none; stroke: #ffffff; stroke-width: 0.8; stroke-linecap: round"/>
     </g>
     <g id="text_26">
      <!-- 0 -->
      <g style="fill: #262626" transform="translate(42.589063 247.128281) scale(0.1 -0.1)">
       <use xlink:href="#ArialMT-30"/>
      </g>
     </g>
    </g>
    <g id="ytick_2">
     <g id="line2d_26">
      <path d="M 55.15 206.589375 
L 501.55 206.589375 
" clip-path="url(#pe4bbf222b9)" style="fill: none; stroke: #ffffff; stroke-width: 0.8; stroke-linecap: round"/>
     </g>
     <g id="text_27">
      <!-- 5000 -->
      <g style="fill: #262626" transform="translate(25.90625 210.168281) scale(0.1 -0.1)">
       <use xlink:href="#ArialMT-35"/>
       <use xlink:href="#ArialMT-30" x="55.615234"/>
       <use xlink:href="#ArialMT-30" x="111.230469"/>
       <use xlink:href="#ArialMT-30" x="166.845703"/>
      </g>
     </g>
    </g>
    <g id="ytick_3">
     <g id="line2d_27">
      <path d="M 55.15 169.629375 
L 501.55 169.629375 
" clip-path="url(#pe4bbf222b9)" style="fill: none; stroke: #ffffff; stroke-width: 0.8; stroke-linecap: round"/>
     </g>
     <g id="text_28">
      <!-- 10000 -->
      <g style="fill: #262626" transform="translate(20.345313 173.208281) scale(0.1 -0.1)">
       <use xlink:href="#ArialMT-31"/>
       <use xlink:href="#ArialMT-30" x="55.615234"/>
       <use xlink:href="#ArialMT-30" x="111.230469"/>
       <use xlink:href="#ArialMT-30" x="166.845703"/>
       <use xlink:href="#ArialMT-30" x="222.460938"/>
      </g>
     </g>
    </g>
    <g id="ytick_4">
     <g id="line2d_28">
      <path d="M 55.15 132.669375 
L 501.55 132.669375 
" clip-path="url(#pe4bbf222b9)" style="fill: none; stroke: #ffffff; stroke-width: 0.8; stroke-linecap: round"/>
     </g>
     <g id="text_29">
      <!-- 15000 -->
      <g style="fill: #262626" transform="translate(20.345313 136.248281) scale(0.1 -0.1)">
       <use xlink:href="#ArialMT-31"/>
       <use xlink:href="#ArialMT-35" x="55.615234"/>
       <use xlink:href="#ArialMT-30" x="111.230469"/>
       <use xlink:href="#ArialMT-30" x="166.845703"/>
       <use xlink:href="#ArialMT-30" x="222.460938"/>
      </g>
     </g>
    </g>
    <g id="ytick_5">
     <g id="line2d_29">
      <path d="M 55.15 95.709375 
L 501.55 95.709375 
" clip-path="url(#pe4bbf222b9)" style="fill: none; stroke: #ffffff; stroke-width: 0.8; stroke-linecap: round"/>
     </g>
     <g id="text_30">
      <!-- 20000 -->
      <g style="fill: #262626" transform="translate(20.345313 99.288281) scale(0.1 -0.1)">
       <use xlink:href="#ArialMT-32"/>
       <use xlink:href="#ArialMT-30" x="55.615234"/>
       <use xlink:href="#ArialMT-30" x="111.230469"/>
       <use xlink:href="#ArialMT-30" x="166.845703"/>
       <use xlink:href="#ArialMT-30" x="222.460938"/>
      </g>
     </g>
    </g>
    <g id="ytick_6">
     <g id="line2d_30">
      <path d="M 55.15 58.749375 
L 501.55 58.749375 
" clip-path="url(#pe4bbf222b9)" style="fill: none; stroke: #ffffff; stroke-width: 0.8; stroke-linecap: round"/>
     </g>
     <g id="text_31">
      <!-- 25000 -->
      <g style="fill: #262626" transform="translate(20.345313 62.328281) scale(0.1 -0.1)">
       <use xlink:href="#ArialMT-32"/>
       <use xlink:href="#ArialMT-35" x="55.615234"/>
       <use xlink:href="#ArialMT-30" x="111.230469"/>
       <use xlink:href="#ArialMT-30" x="166.845703"/>
       <use xlink:href="#ArialMT-30" x="222.460938"/>
      </g>
     </g>
    </g>
    <g id="ytick_7">
     <g id="line2d_31">
      <path d="M 55.15 21.789375 
L 501.55 21.789375 
" clip-path="url(#pe4bbf222b9)" style="fill: none; stroke: #ffffff; stroke-width: 0.8; stroke-linecap: round"/>
     </g>
     <g id="text_32">
      <!-- 30000 -->
      <g style="fill: #262626" transform="translate(20.345313 25.368281) scale(0.1 -0.1)">
       <use xlink:href="#ArialMT-33"/>
       <use xlink:href="#ArialMT-30" x="55.615234"/>
       <use xlink:href="#ArialMT-30" x="111.230469"/>
       <use xlink:href="#ArialMT-30" x="166.845703"/>
       <use xlink:href="#ArialMT-30" x="222.460938"/>
      </g>
     </g>
    </g>
    <g id="text_33">
     <!-- Order volume -->
     <g style="fill: #262626" transform="translate(14.357813 162.955312) rotate(-90) scale(0.1 -0.1)">
      <defs>
       <path id="ArialMT-4f" d="M 309 2231 
Q 309 3372 921 4017 
Q 1534 4663 2503 4663 
Q 3138 4663 3647 4359 
Q 4156 4056 4423 3514 
Q 4691 2972 4691 2284 
Q 4691 1588 4409 1038 
Q 4128 488 3612 205 
Q 3097 -78 2500 -78 
Q 1853 -78 1343 234 
Q 834 547 571 1087 
Q 309 1628 309 2231 
z
M 934 2222 
Q 934 1394 1379 917 
Q 1825 441 2497 441 
Q 3181 441 3623 922 
Q 4066 1403 4066 2288 
Q 4066 2847 3877 3264 
Q 3688 3681 3323 3911 
Q 2959 4141 2506 4141 
Q 1863 4141 1398 3698 
Q 934 3256 934 2222 
z
" transform="scale(0.015625)"/>
       <path id="ArialMT-64" d="M 2575 0 
L 2575 419 
Q 2259 -75 1647 -75 
Q 1250 -75 917 144 
Q 584 363 401 755 
Q 219 1147 219 1656 
Q 219 2153 384 2558 
Q 550 2963 881 3178 
Q 1213 3394 1622 3394 
Q 1922 3394 2156 3267 
Q 2391 3141 2538 2938 
L 2538 4581 
L 3097 4581 
L 3097 0 
L 2575 0 
z
M 797 1656 
Q 797 1019 1065 703 
Q 1334 388 1700 388 
Q 2069 388 2326 689 
Q 2584 991 2584 1609 
Q 2584 2291 2321 2609 
Q 2059 2928 1675 2928 
Q 1300 2928 1048 2622 
Q 797 2316 797 1656 
z
" transform="scale(0.015625)"/>
       <path id="ArialMT-65" d="M 2694 1069 
L 3275 997 
Q 3138 488 2766 206 
Q 2394 -75 1816 -75 
Q 1088 -75 661 373 
Q 234 822 234 1631 
Q 234 2469 665 2931 
Q 1097 3394 1784 3394 
Q 2450 3394 2872 2941 
Q 3294 2488 3294 1666 
Q 3294 1616 3291 1516 
L 816 1516 
Q 847 969 1125 678 
Q 1403 388 1819 388 
Q 2128 388 2347 550 
Q 2566 713 2694 1069 
z
M 847 1978 
L 2700 1978 
Q 2663 2397 2488 2606 
Q 2219 2931 1791 2931 
Q 1403 2931 1139 2672 
Q 875 2413 847 1978 
z
" transform="scale(0.015625)"/>
       <path id="ArialMT-20" transform="scale(0.015625)"/>
       <path id="ArialMT-76" d="M 1344 0 
L 81 3319 
L 675 3319 
L 1388 1331 
Q 1503 1009 1600 663 
Q 1675 925 1809 1294 
L 2547 3319 
L 3125 3319 
L 1869 0 
L 1344 0 
z
" transform="scale(0.015625)"/>
       <path id="ArialMT-6c" d="M 409 0 
L 409 4581 
L 972 4581 
L 972 0 
L 409 0 
z
" transform="scale(0.015625)"/>
       <path id="ArialMT-6d" d="M 422 0 
L 422 3319 
L 925 3319 
L 925 2853 
Q 1081 3097 1340 3245 
Q 1600 3394 1931 3394 
Q 2300 3394 2536 3241 
Q 2772 3088 2869 2813 
Q 3263 3394 3894 3394 
Q 4388 3394 4653 3120 
Q 4919 2847 4919 2278 
L 4919 0 
L 4359 0 
L 4359 2091 
Q 4359 2428 4304 2576 
Q 4250 2725 4106 2815 
Q 3963 2906 3769 2906 
Q 3419 2906 3187 2673 
Q 2956 2441 2956 1928 
L 2956 0 
L 2394 0 
L 2394 2156 
Q 2394 2531 2256 2718 
Q 2119 2906 1806 2906 
Q 1569 2906 1367 2781 
Q 1166 2656 1075 2415 
Q 984 2175 984 1722 
L 984 0 
L 422 0 
z
" transform="scale(0.015625)"/>
      </defs>
      <use xlink:href="#ArialMT-4f"/>
      <use xlink:href="#ArialMT-72" x="77.783203"/>
      <use xlink:href="#ArialMT-64" x="111.083984"/>
      <use xlink:href="#ArialMT-65" x="166.699219"/>
      <use xlink:href="#ArialMT-72" x="222.314453"/>
      <use xlink:href="#ArialMT-20" x="255.615234"/>
      <use xlink:href="#ArialMT-76" x="283.398438"/>
      <use xlink:href="#ArialMT-6f" x="333.398438"/>
      <use xlink:href="#ArialMT-6c" x="389.013672"/>
      <use xlink:href="#ArialMT-75" x="411.230469"/>
      <use xlink:href="#ArialMT-6d" x="466.845703"/>
      <use xlink:href="#ArialMT-65" x="550.146484"/>
     </g>
    </g>
   </g>
   <g id="patch_3">
    <path d="M 75.440909 243.549375 
L 84.075338 243.549375 
L 84.075338 -264.613665 
L 75.440909 -264.613665 
z
" clip-path="url(#pe4bbf222b9)" style="fill: #1f77b4; stroke: #ffffff; stroke-linejoin: miter"/>
   </g>
   <g id="patch_4">
    <path d="M 92.709768 243.549375 
L 101.344197 243.549375 
L 101.344197 -223.196289 
L 92.709768 -223.196289 
z
" clip-path="url(#pe4bbf222b9)" style="fill: #1f77b4; stroke: #ffffff; stroke-linejoin: miter"/>
   </g>
   <g id="patch_5">
    <path d="M 109.978627 243.549375 
L 118.613056 243.549375 
L 118.613056 -204.997185 
L 109.978627 -204.997185 
z
" clip-path="url(#pe4bbf222b9)" style="fill: #1f77b4; stroke: #ffffff; stroke-linejoin: miter"/>
   </g>
   <g id="patch_6">
    <path d="M 127.247485 243.549375 
L 135.881915 243.549375 
L 135.881915 -181.446273 
L 127.247485 -181.446273 
z
" clip-path="url(#pe4bbf222b9)" style="fill: #1f77b4; stroke: #ffffff; stroke-linejoin: miter"/>
   </g>
   <g id="patch_7">
    <path d="M 144.516344 243.549375 
L 153.150774 243.549375 
L 153.150774 -178.238145 
L 144.516344 -178.238145 
z
" clip-path="url(#pe4bbf222b9)" style="fill: #1f77b4; stroke: #ffffff; stroke-linejoin: miter"/>
   </g>
   <g id="patch_8">
    <path d="M 161.785203 243.549375 
L 170.419632 243.549375 
L 170.419632 -197.279937 
L 161.785203 -197.279937 
z
" clip-path="url(#pe4bbf222b9)" style="fill: #1f77b4; stroke: #ffffff; stroke-linejoin: miter"/>
   </g>
   <g id="patch_9">
    <path d="M 179.054062 243.549375 
L 187.688491 243.549375 
L 187.688491 -198.063489 
L 179.054062 -198.063489 
z
" clip-path="url(#pe4bbf222b9)" style="fill: #1f77b4; stroke: #ffffff; stroke-linejoin: miter"/>
   </g>
   <g id="patch_10">
    <path d="M 196.322921 243.549375 
L 204.95735 243.549375 
L 204.95735 -227.912385 
L 196.322921 -227.912385 
z
" clip-path="url(#pe4bbf222b9)" style="fill: #1f77b4; stroke: #ffffff; stroke-linejoin: miter"/>
   </g>
   <g id="patch_11">
    <path d="M 213.591779 243.549375 
L 222.226209 243.549375 
L 222.226209 -260.762433 
L 213.591779 -260.762433 
z
" clip-path="url(#pe4bbf222b9)" style="fill: #1f77b4; stroke: #ffffff; stroke-linejoin: miter"/>
   </g>
   <g id="patch_12">
    <path d="M 230.860638 243.549375 
L 239.495068 243.549375 
L 239.495068 -229.730817 
L 230.860638 -229.730817 
z
" clip-path="url(#pe4bbf222b9)" style="fill: #1f77b4; stroke: #ffffff; stroke-linejoin: miter"/>
   </g>
   <g id="patch_13">
    <path d="M 248.129497 243.549375 
L 256.763926 243.549375 
L 256.763926 -268.782753 
L 248.129497 -268.782753 
z
" clip-path="url(#pe4bbf222b9)" style="fill: #1f77b4; stroke: #ffffff; stroke-linejoin: miter"/>
   </g>
   <g id="patch_14">
    <path d="M 265.398356 243.549375 
L 274.032785 243.549375 
L 274.032785 -283.396737 
L 265.398356 -283.396737 
z
" clip-path="url(#pe4bbf222b9)" style="fill: #1f77b4; stroke: #ffffff; stroke-linejoin: miter"/>
   </g>
   <g id="patch_15">
    <path d="M 282.667215 243.549375 
L 291.301644 243.549375 
L 291.301644 -243.406017 
L 282.667215 -243.406017 
z
" clip-path="url(#pe4bbf222b9)" style="fill: #1f77b4; stroke: #ffffff; stroke-linejoin: miter"/>
   </g>
   <g id="patch_16">
    <path d="M 299.936074 243.549375 
L 308.570503 243.549375 
L 308.570503 -268.065729 
L 299.936074 -268.065729 
z
" clip-path="url(#pe4bbf222b9)" style="fill: #1f77b4; stroke: #ffffff; stroke-linejoin: miter"/>
   </g>
   <g id="patch_17">
    <path d="M 317.204932 243.549375 
L 325.839362 243.549375 
L 325.839362 -285.052545 
L 317.204932 -285.052545 
z
" clip-path="url(#pe4bbf222b9)" style="fill: #1f77b4; stroke: #ffffff; stroke-linejoin: miter"/>
   </g>
   <g id="patch_18">
    <path d="M 334.473791 243.549375 
L 343.108221 243.549375 
L 343.108221 -275.672097 
L 334.473791 -275.672097 
z
" clip-path="url(#pe4bbf222b9)" style="fill: #1f77b4; stroke: #ffffff; stroke-linejoin: miter"/>
   </g>
   <g id="patch_19">
    <path d="M 351.74265 243.549375 
L 360.377079 243.549375 
L 360.377079 -287.181441 
L 351.74265 -287.181441 
z
" clip-path="url(#pe4bbf222b9)" style="fill: #1f77b4; stroke: #ffffff; stroke-linejoin: miter"/>
   </g>
   <g id="patch_20">
    <path d="M 369.011509 243.549375 
L 377.645938 243.549375 
L 377.645938 -276.352161 
L 369.011509 -276.352161 
z
" clip-path="url(#pe4bbf222b9)" style="fill: #1f77b4; stroke: #ffffff; stroke-linejoin: miter"/>
   </g>
   <g id="patch_21">
    <path d="M 386.280368 243.549375 
L 394.914797 243.549375 
L 394.914797 -225.946113 
L 386.280368 -225.946113 
z
" clip-path="url(#pe4bbf222b9)" style="fill: #1f77b4; stroke: #ffffff; stroke-linejoin: miter"/>
   </g>
   <g id="patch_22">
    <path d="M 403.549226 243.549375 
L 412.183656 243.549375 
L 412.183656 -304.781793 
L 403.549226 -304.781793 
z
" clip-path="url(#pe4bbf222b9)" style="fill: #1f77b4; stroke: #ffffff; stroke-linejoin: miter"/>
   </g>
   <g id="patch_23">
    <path d="M 420.818085 243.549375 
L 429.452515 243.549375 
L 429.452515 -310.392321 
L 420.818085 -310.392321 
z
" clip-path="url(#pe4bbf222b9)" style="fill: #1f77b4; stroke: #ffffff; stroke-linejoin: miter"/>
   </g>
   <g id="patch_24">
    <path d="M 438.086944 243.549375 
L 446.721373 243.549375 
L 446.721373 -274.400673 
L 438.086944 -274.400673 
z
" clip-path="url(#pe4bbf222b9)" style="fill: #1f77b4; stroke: #ffffff; stroke-linejoin: miter"/>
   </g>
   <g id="patch_25">
    <path d="M 455.355803 243.549375 
L 463.990232 243.549375 
L 463.990232 -285.000801 
L 455.355803 -285.000801 
z
" clip-path="url(#pe4bbf222b9)" style="fill: #1f77b4; stroke: #ffffff; stroke-linejoin: miter"/>
   </g>
   <g id="patch_26">
    <path d="M 472.624662 243.549375 
L 481.259091 243.549375 
L 481.259091 -237.004545 
L 472.624662 -237.004545 
z
" clip-path="url(#pe4bbf222b9)" style="fill: #1f77b4; stroke: #ffffff; stroke-linejoin: miter"/>
   </g>
   <g id="patch_27">
    <path d="M 75.440909 243.549375 
L 84.075338 243.549375 
L 84.075338 93.403071 
L 75.440909 93.403071 
z
" clip-path="url(#pe4bbf222b9)" style="fill: #ff7f0e; stroke: #ffffff; stroke-linejoin: miter"/>
   </g>
   <g id="patch_28">
    <path d="M 92.709768 243.549375 
L 101.344197 243.549375 
L 101.344197 137.237631 
L 92.709768 137.237631 
z
" clip-path="url(#pe4bbf222b9)" style="fill: #ff7f0e; stroke: #ffffff; stroke-linejoin: miter"/>
   </g>
   <g id="patch_29">
    <path d="M 109.978627 243.549375 
L 118.613056 243.549375 
L 118.613056 163.457055 
L 109.978627 163.457055 
z
" clip-path="url(#pe4bbf222b9)" style="fill: #ff7f0e; stroke: #ffffff; stroke-linejoin: miter"/>
   </g>
   <g id="patch_30">
    <path d="M 127.247485 243.549375 
L 135.881915 243.549375 
L 135.881915 186.594015 
L 127.247485 186.594015 
z
" clip-path="url(#pe4bbf222b9)" style="fill: #ff7f0e; stroke: #ffffff; stroke-linejoin: miter"/>
   </g>
   <g id="patch_31">
    <path d="M 144.516344 243.549375 
L 153.150774 243.549375 
L 153.150774 202.442463 
L 144.516344 202.442463 
z
" clip-path="url(#pe4bbf222b9)" style="fill: #ff7f0e; stroke: #ffffff; stroke-linejoin: miter"/>
   </g>
   <g id="patch_32">
    <path d="M 161.785203 243.549375 
L 170.419632 243.549375 
L 170.419632 203.913471 
L 161.785203 203.913471 
z
" clip-path="url(#pe4bbf222b9)" style="fill: #ff7f0e; stroke: #ffffff; stroke-linejoin: miter"/>
   </g>
   <g id="patch_33">
    <path d="M 179.054062 243.549375 
L 187.688491 243.549375 
L 187.688491 177.036159 
L 179.054062 177.036159 
z
" clip-path="url(#pe4bbf222b9)" style="fill: #ff7f0e; stroke: #ffffff; stroke-linejoin: miter"/>
   </g>
   <g id="patch_34">
    <path d="M 196.322921 243.549375 
L 204.95735 243.549375 
L 204.95735 118.129311 
L 196.322921 118.129311 
z
" clip-path="url(#pe4bbf222b9)" style="fill: #ff7f0e; stroke: #ffffff; stroke-linejoin: miter"/>
   </g>
   <g id="patch_35">
    <path d="M 213.591779 243.549375 
L 222.226209 243.549375 
L 222.226209 74.087775 
L 213.591779 74.087775 
z
" clip-path="url(#pe4bbf222b9)" style="fill: #ff7f0e; stroke: #ffffff; stroke-linejoin: miter"/>
   </g>
   <g id="patch_36">
    <path d="M 230.860638 243.549375 
L 239.495068 243.549375 
L 239.495068 80.807103 
L 230.860638 80.807103 
z
" clip-path="url(#pe4bbf222b9)" style="fill: #ff7f0e; stroke: #ffffff; stroke-linejoin: miter"/>
   </g>
   <g id="patch_37">
    <path d="M 248.129497 243.549375 
L 256.763926 243.549375 
L 256.763926 69.068607 
L 248.129497 69.068607 
z
" clip-path="url(#pe4bbf222b9)" style="fill: #ff7f0e; stroke: #ffffff; stroke-linejoin: miter"/>
   </g>
   <g id="patch_38">
    <path d="M 265.398356 243.549375 
L 274.032785 243.549375 
L 274.032785 77.044575 
L 265.398356 77.044575 
z
" clip-path="url(#pe4bbf222b9)" style="fill: #ff7f0e; stroke: #ffffff; stroke-linejoin: miter"/>
   </g>
   <g id="patch_39">
    <path d="M 282.667215 243.549375 
L 291.301644 243.549375 
L 291.301644 88.753503 
L 282.667215 88.753503 
z
" clip-path="url(#pe4bbf222b9)" style="fill: #ff7f0e; stroke: #ffffff; stroke-linejoin: miter"/>
   </g>
   <g id="patch_40">
    <path d="M 299.936074 243.549375 
L 308.570503 243.549375 
L 308.570503 63.214143 
L 299.936074 63.214143 
z
" clip-path="url(#pe4bbf222b9)" style="fill: #ff7f0e; stroke: #ffffff; stroke-linejoin: miter"/>
   </g>
   <g id="patch_41">
    <path d="M 317.204932 243.549375 
L 325.839362 243.549375 
L 325.839362 58.084095 
L 317.204932 58.084095 
z
" clip-path="url(#pe4bbf222b9)" style="fill: #ff7f0e; stroke: #ffffff; stroke-linejoin: miter"/>
   </g>
   <g id="patch_42">
    <path d="M 334.473791 243.549375 
L 343.108221 243.549375 
L 343.108221 70.465695 
L 334.473791 70.465695 
z
" clip-path="url(#pe4bbf222b9)" style="fill: #ff7f0e; stroke: #ffffff; stroke-linejoin: miter"/>
   </g>
   <g id="patch_43">
    <path d="M 351.74265 243.549375 
L 360.377079 243.549375 
L 360.377079 91.259391 
L 351.74265 91.259391 
z
" clip-path="url(#pe4bbf222b9)" style="fill: #ff7f0e; stroke: #ffffff; stroke-linejoin: miter"/>
   </g>
   <g id="patch_44">
    <path d="M 369.011509 243.549375 
L 377.645938 243.549375 
L 377.645938 90.254079 
L 369.011509 90.254079 
z
" clip-path="url(#pe4bbf222b9)" style="fill: #ff7f0e; stroke: #ffffff; stroke-linejoin: miter"/>
   </g>
   <g id="patch_45">
    <path d="M 386.280368 243.549375 
L 394.914797 243.549375 
L 394.914797 114.529407 
L 386.280368 114.529407 
z
" clip-path="url(#pe4bbf222b9)" style="fill: #ff7f0e; stroke: #ffffff; stroke-linejoin: miter"/>
   </g>
   <g id="patch_46">
    <path d="M 403.549226 243.549375 
L 412.183656 243.549375 
L 412.183656 77.399391 
L 403.549226 77.399391 
z
" clip-path="url(#pe4bbf222b9)" style="fill: #ff7f0e; stroke: #ffffff; stroke-linejoin: miter"/>
   </g>
   <g id="patch_47">
    <path d="M 420.818085 243.549375 
L 429.452515 243.549375 
L 429.452515 45.340287 
L 420.818085 45.340287 
z
" clip-path="url(#pe4bbf222b9)" style="fill: #ff7f0e; stroke: #ffffff; stroke-linejoin: miter"/>
   </g>
   <g id="patch_48">
    <path d="M 438.086944 243.549375 
L 446.721373 243.549375 
L 446.721373 43.144863 
L 438.086944 43.144863 
z
" clip-path="url(#pe4bbf222b9)" style="fill: #ff7f0e; stroke: #ffffff; stroke-linejoin: miter"/>
   </g>
   <g id="patch_49">
    <path d="M 455.355803 243.549375 
L 463.990232 243.549375 
L 463.990232 35.819391 
L 455.355803 35.819391 
z
" clip-path="url(#pe4bbf222b9)" style="fill: #ff7f0e; stroke: #ffffff; stroke-linejoin: miter"/>
   </g>
   <g id="patch_50">
    <path d="M 472.624662 243.549375 
L 481.259091 243.549375 
L 481.259091 48.504063 
L 472.624662 48.504063 
z
" clip-path="url(#pe4bbf222b9)" style="fill: #ff7f0e; stroke: #ffffff; stroke-linejoin: miter"/>
   </g>
   <g id="line2d_32">
    <path clip-path="url(#pe4bbf222b9)" style="fill: none; stroke: #000000; stroke-width: 1.5; stroke-linecap: round"/>
   </g>
   <g id="line2d_33">
    <defs>
     <path id="mdc7d051349" d="M 0 1.5 
C 0.397805 1.5 0.77937 1.341951 1.06066 1.06066 
C 1.341951 0.77937 1.5 0.397805 1.5 0 
C 1.5 -0.397805 1.341951 -0.77937 1.06066 -1.06066 
C 0.77937 -1.341951 0.397805 -1.5 0 -1.5 
C -0.397805 -1.5 -0.77937 -1.341951 -1.06066 -1.06066 
C -1.341951 -0.77937 -1.5 -0.397805 -1.5 0 
C -1.5 0.397805 -1.341951 0.77937 -1.06066 1.06066 
C -0.77937 1.341951 -0.397805 1.5 0 1.5 
z
" style="stroke: #000000"/>
    </defs>
    <g clip-path="url(#pe4bbf222b9)"/>
   </g>
   <g id="line2d_34">
    <path d="M 79.758124 93.403071 
L 97.026983 137.237631 
L 114.295841 163.457055 
L 131.5647 186.594015 
L 148.833559 202.442463 
L 166.102418 203.913471 
L 183.371277 177.036159 
L 200.640135 118.129311 
L 217.908994 74.087775 
L 235.177853 80.807103 
L 252.446712 69.068607 
L 269.715571 77.044575 
L 286.984429 88.753503 
L 304.253288 63.214143 
L 321.522147 58.084095 
L 338.791006 70.465695 
L 356.059865 91.259391 
L 373.328723 90.254079 
L 390.597582 114.529407 
L 407.866441 77.399391 
L 425.1353 45.340287 
L 442.404159 43.144863 
L 459.673017 35.819391 
L 476.941876 48.504063 
" clip-path="url(#pe4bbf222b9)" style="fill: none; stroke: #000000; stroke-width: 1.5; stroke-linecap: round"/>
   </g>
   <g id="line2d_35">
    <g clip-path="url(#pe4bbf222b9)">
     <use xlink:href="#mdc7d051349" x="79.758124" y="93.403071" style="stroke: #000000"/>
     <use xlink:href="#mdc7d051349" x="97.026983" y="137.237631" style="stroke: #000000"/>
     <use xlink:href="#mdc7d051349" x="114.295841" y="163.457055" style="stroke: #000000"/>
     <use xlink:href="#mdc7d051349" x="131.5647" y="186.594015" style="stroke: #000000"/>
     <use xlink:href="#mdc7d051349" x="148.833559" y="202.442463" style="stroke: #000000"/>
     <use xlink:href="#mdc7d051349" x="166.102418" y="203.913471" style="stroke: #000000"/>
     <use xlink:href="#mdc7d051349" x="183.371277" y="177.036159" style="stroke: #000000"/>
     <use xlink:href="#mdc7d051349" x="200.640135" y="118.129311" style="stroke: #000000"/>
     <use xlink:href="#mdc7d051349" x="217.908994" y="74.087775" style="stroke: #000000"/>
     <use xlink:href="#mdc7d051349" x="235.177853" y="80.807103" style="stroke: #000000"/>
     <use xlink:href="#mdc7d051349" x="252.446712" y="69.068607" style="stroke: #000000"/>
     <use xlink:href="#mdc7d051349" x="269.715571" y="77.044575" style="stroke: #000000"/>
     <use xlink:href="#mdc7d051349" x="286.984429" y="88.753503" style="stroke: #000000"/>
     <use xlink:href="#mdc7d051349" x="304.253288" y="63.214143" style="stroke: #000000"/>
     <use xlink:href="#mdc7d051349" x="321.522147" y="58.084095" style="stroke: #000000"/>
     <use xlink:href="#mdc7d051349" x="338.791006" y="70.465695" style="stroke: #000000"/>
     <use xlink:href="#mdc7d051349" x="356.059865" y="91.259391" style="stroke: #000000"/>
     <use xlink:href="#mdc7d051349" x="373.328723" y="90.254079" style="stroke: #000000"/>
     <use xlink:href="#mdc7d051349" x="390.597582" y="114.529407" style="stroke: #000000"/>
     <use xlink:href="#mdc7d051349" x="407.866441" y="77.399391" style="stroke: #000000"/>
     <use xlink:href="#mdc7d051349" x="425.1353" y="45.340287" style="stroke: #000000"/>
     <use xlink:href="#mdc7d051349" x="442.404159" y="43.144863" style="stroke: #000000"/>
     <use xlink:href="#mdc7d051349" x="459.673017" y="35.819391" style="stroke: #000000"/>
     <use xlink:href="#mdc7d051349" x="476.941876" y="48.504063" style="stroke: #000000"/>
    </g>
   </g>
   <g id="patch_51">
    <path d="M 55.15 243.549375 
L 55.15 21.789375 
" style="fill: none; stroke: #ffffff; stroke-width: 0.8; stroke-linejoin: miter; stroke-linecap: square"/>
   </g>
   <g id="patch_52">
    <path d="M 501.55 243.549375 
L 501.55 21.789375 
" style="fill: none; stroke: #ffffff; stroke-width: 0.8; stroke-linejoin: miter; stroke-linecap: square"/>
   </g>
   <g id="patch_53">
    <path d="M 55.15 243.549375 
L 501.55 243.549375 
" style="fill: none; stroke: #ffffff; stroke-width: 0.8; stroke-linejoin: miter; stroke-linecap: square"/>
   </g>
   <g id="patch_54">
    <path d="M 55.15 21.789375 
L 501.55 21.789375 
" style="fill: none; stroke: #ffffff; stroke-width: 0.8; stroke-linejoin: miter; stroke-linecap: square"/>
   </g>
   <g id="text_34">
    <!-- Hourly order Volume -->
    <g style="fill: #262626" transform="translate(223.660938 15.789375) scale(0.12 -0.12)">
     <defs>
      <path id="ArialMT-79" d="M 397 -1278 
L 334 -750 
Q 519 -800 656 -800 
Q 844 -800 956 -737 
Q 1069 -675 1141 -563 
Q 1194 -478 1313 -144 
Q 1328 -97 1363 -6 
L 103 3319 
L 709 3319 
L 1400 1397 
Q 1534 1031 1641 628 
Q 1738 1016 1872 1384 
L 2581 3319 
L 3144 3319 
L 1881 -56 
Q 1678 -603 1566 -809 
Q 1416 -1088 1222 -1217 
Q 1028 -1347 759 -1347 
Q 597 -1347 397 -1278 
z
" transform="scale(0.015625)"/>
      <path id="ArialMT-56" d="M 1803 0 
L 28 4581 
L 684 4581 
L 1875 1253 
Q 2019 853 2116 503 
Q 2222 878 2363 1253 
L 3600 4581 
L 4219 4581 
L 2425 0 
L 1803 0 
z
" transform="scale(0.015625)"/>
     </defs>
     <use xlink:href="#ArialMT-48"/>
     <use xlink:href="#ArialMT-6f" x="72.216797"/>
     <use xlink:href="#ArialMT-75" x="127.832031"/>
     <use xlink:href="#ArialMT-72" x="183.447266"/>
     <use xlink:href="#ArialMT-6c" x="216.748047"/>
     <use xlink:href="#ArialMT-79" x="238.964844"/>
     <use xlink:href="#ArialMT-20" x="288.964844"/>
     <use xlink:href="#ArialMT-6f" x="316.748047"/>
     <use xlink:href="#ArialMT-72" x="372.363281"/>
     <use xlink:href="#ArialMT-64" x="405.664062"/>
     <use xlink:href="#ArialMT-65" x="461.279297"/>
     <use xlink:href="#ArialMT-72" x="516.894531"/>
     <use xlink:href="#ArialMT-20" x="550.195312"/>
     <use xlink:href="#ArialMT-56" x="577.978516"/>
     <use xlink:href="#ArialMT-6f" x="639.177734"/>
     <use xlink:href="#ArialMT-6c" x="694.792969"/>
     <use xlink:href="#ArialMT-75" x="717.009766"/>
     <use xlink:href="#ArialMT-6d" x="772.625"/>
     <use xlink:href="#ArialMT-65" x="855.925781"/>
    </g>
   </g>
  </g>
 </g>
 <defs>
  <clipPath id="pe4bbf222b9">
   <rect x="55.15" y="21.789375" width="446.4" height="221.76"/>
  </clipPath>
 </defs>
</svg>
